<svg xmlns="http://www.w3.org/2000/svg" viewBox="0 0 449.67 181"><g id="Layer_2" data-name="Layer 2"><g id="Layer_1-2" data-name="Layer 1"><polygon points="432 181 306 118 0 118 117 181 432 181"/><path d="M323.67,0l8.77,4.49,4.13,38.39c.35,3.93,1.43,20.6,1.43,20.6l.17.09s1.12-14.3,1.54-17.83L343.58,13l5.89,3,4,36.81c.4,4.1,1.64,19.46,1.64,19.46l.17.09s1-15.61,1.37-19.17l3.95-34.25,8.77,4.49-9.74,86.45-7.4-3.79-4.17-38.4c-.44-4.26-1.38-17.1-1.38-17.1l-.21-.11s-.83,12.08-1.25,15.75l-4.08,34.19-7.35-3.77Z"/><path d="M384.55,31.17l.23,91.55-7.82-4-.23-91.56Z"/><path d="M401.63,62.15l-9.58-4.91L392,35l27,13.85.06,22.26-9.63-4.93.17,69.3-7.82-4Z"/><path d="M438.71,118.92c-.56,1.94-2.86,7.43-2.86,7.43v.28l13.76,7,.06,22.27-24.34-12.46-.05-18.78,10.65-35.41c.81-2.78,2.9-7.83,2.9-7.83v-.28l-13.2-6.75-.06-22.27,23.86,12.22L449.48,83Z"/><path d="M37.43,36.08c0-2.62-1.81-3.22-4.63-3.22H27.56v7.25h7.25a4.36,4.36,0,0,0,2.62-4Z"/><path d="M34,46.75H27.56v7.46h5.85c3.41,0,5-1.41,5-3.83,0-2.61-1.62-3.63-4.43-3.63Z"/><path d="M35.82,61.25H18.29V25.81H35c7.25,0,11.47,3.43,11.47,9.06a8.6,8.6,0,0,1-4.83,7.46c2.82,1,5.85,3.42,5.85,8.86,0,5.64-4.44,10.06-11.69,10.06ZM9.29,10.05V77.3H52V10.05Z"/><polygon points="64.22 19.5 64.22 34.41 67.12 25.82 77.79 25.82 88.87 60.45 88.87 61.25 79.61 61.25 77.89 55.42 65.81 55.42 64.22 60.85 64.22 67.84 93.85 67.84 93.85 19.5 64.22 19.5 64.22 19.5"/><polygon points="71.95 34.87 67.88 48.57 75.93 48.57 71.95 34.87 71.95 34.87"/><path d="M124.08,37.49c0-3.43-1.61-4.63-5.24-4.63h-4.23v9.47h6.25a5.34,5.34,0,0,0,3.22-4.84"/><path d="M175.18,61.25h-9.26L152.83,40.61V61.25h-9.27V25.81h9.27L165.92,46.7V25.81h9.26V61.25ZM106.09,2V25.81h15c6.84,0,12.08,3,12.08,10.07a11.41,11.41,0,0,1-6.24,10.47l7.85,14.31v.59h-9.47l-6.44-12.08h-4.23V61.25h-8.52v24.1h76.3V2Z"/><polygon points="194.61 19.5 194.61 25.82 218.08 25.82 218.08 32.86 203.38 32.86 203.38 39.3 216.07 39.3 216.07 46.55 203.38 46.55 203.38 54.21 218.48 54.21 218.48 61.25 194.61 61.25 194.61 67.84 224.11 67.84 224.11 19.5 194.61 19.5 194.61 19.5"/><path d="M251,51.16c0-2.21-1-2.91-4.64-4l-4-1.21a13.11,13.11,0,0,1-6-3.37v10a22.53,22.53,0,0,0,8.63,1.78c4.62,0,6-1.21,6-3.23"/><path d="M236.31,10V29.31c2.51-2.55,6.81-3.93,12.25-3.93,2.82,0,7.45,1,9.46,2.43v6.64h-.8c-2-1.21-6.24-1.81-9.06-1.81s-5.24.81-5.24,2.82,1.26,2.61,2.62,3l4,1.21C254.2,41.1,260,42.7,260,50.76c0,6.65-5,10.88-15.1,10.88A25.49,25.49,0,0,1,236.31,60V77.28h43V10Z"/></g></g></svg>